<svg version="1.1" id="Layer_1" xmlns="http://www.w3.org/2000/svg" xmlns:xlink="http://www.w3.org/1999/xlink" x="0px" y="0px"
	 width="100%" viewBox="0 0 1000 1000" enable-background="new 0 0 1000 1000" xml:space="preserve">
<path fill="#000000" opacity="1.000000" stroke="none" 
	d="
M482.000000,1001.000000 
	C321.333344,1001.000000 161.166672,1001.000000 1.000000,1001.000000 
	C1.000000,667.666687 1.000000,334.333344 1.000000,1.000000 
	C334.333344,1.000000 667.666687,1.000000 1001.000000,1.000000 
	C1001.000000,334.333344 1001.000000,667.666687 1001.000000,1001.000000 
	C828.166687,1001.000000 655.333313,1001.000000 482.000000,1001.000000 
M339.522186,233.062607 
	C339.338898,233.083633 339.155609,233.104660 338.047211,232.989609 
	C319.716675,233.057465 301.386169,233.125305 282.125916,233.017242 
	C263.881897,233.017242 245.637878,233.017242 226.998810,233.017242 
	C226.998810,235.586792 226.998810,237.552612 226.998810,239.518433 
	C226.998810,307.931213 227.002182,376.343994 226.992432,444.756775 
	C226.991653,450.247284 226.900436,455.737762 225.932739,461.228607 
	C183.995819,461.228607 142.058884,461.228607 99.932022,461.228607 
	C99.932022,464.798431 99.932022,467.867126 99.932022,471.408630 
	C213.093018,471.408630 325.971527,471.408630 439.525421,471.408630 
	C436.013092,478.307770 432.827820,484.564545 429.303650,491.487000 
	C437.768982,491.487000 445.393463,491.545135 453.016571,491.468079 
	C458.816772,491.409424 465.721313,493.057861 470.095276,490.482849 
	C474.252533,488.035461 476.080994,481.231537 478.335602,476.081482 
	C480.098907,472.053619 482.616547,471.151794 486.795654,471.156799 
	C589.949646,471.280518 693.103882,471.253662 796.258057,471.253632 
	C798.393494,471.253632 800.528870,471.253662 802.619263,471.253662 
	C802.619263,467.720093 802.619263,464.640289 802.619263,461.144989 
	C697.235474,461.144989 592.179626,461.144989 486.261078,461.144989 
	C504.137268,426.851685 521.651001,393.253723 539.164734,359.655762 
	C539.466797,359.743103 539.768860,359.830475 540.070923,359.917816 
	C540.070923,386.139404 540.070923,412.360962 540.070923,438.693848 
	C552.184143,438.693848 563.898499,438.693848 575.895203,438.693848 
	C575.895203,436.743530 575.895142,435.103210 575.895203,433.462891 
	C575.895447,417.631470 575.578125,401.791779 575.990723,385.971100 
	C576.359375,371.835205 584.902283,362.472412 599.005005,363.922455 
	C604.636963,364.501526 610.130310,366.428986 616.132263,367.847961 
	C616.879883,366.484558 618.181946,364.109863 619.484070,361.735168 
	C620.307007,362.926544 620.332458,363.850372 620.302979,364.772430 
	C620.005127,374.083862 623.203369,381.919159 630.962463,387.203094 
	C636.419067,390.918945 642.343628,393.987701 648.223816,397.026917 
	C652.047119,399.003052 656.216125,400.298370 660.136658,402.102264 
	C663.166870,403.496582 665.232849,406.251984 663.885254,409.321045 
	C662.862427,411.650665 660.110107,414.588928 657.931335,414.760101 
	C653.296936,415.124115 648.236816,414.670563 643.898621,413.069092 
	C638.112061,410.933014 632.845886,407.387207 627.201172,404.363831 
	C622.557495,412.192078 617.849182,420.129333 613.208191,427.953033 
	C631.159546,444.182648 669.159180,446.978271 688.814087,433.899536 
	C706.341675,422.236389 707.017822,394.509277 689.598511,382.738556 
	C683.513977,378.627136 676.221924,376.270142 669.403198,373.290680 
	C665.608582,371.632599 661.346924,370.832733 657.899414,368.679596 
	C656.178589,367.604858 654.945618,364.283112 655.134583,362.121277 
	C655.264954,360.630463 658.121155,358.389893 659.917847,358.226196 
	C664.505005,357.808167 669.292236,357.798981 673.791992,358.682404 
	C678.881531,359.681610 683.744995,361.832214 688.850403,363.529938 
	C692.631226,355.932861 696.387390,348.385223 700.434998,340.252136 
	C675.944946,330.487305 652.324951,328.104309 628.981262,343.266876 
	C630.240662,338.643280 630.240662,338.643280 626.538452,336.779633 
	C611.826538,329.373749 595.093079,331.677704 582.923096,342.781525 
	C580.695496,344.813965 578.458740,346.836365 575.834595,349.218903 
	C575.834595,344.526093 575.834595,340.265442 575.834595,335.852295 
	C574.695068,335.700836 573.891235,335.501434 573.087280,335.500702 
	C553.272949,335.482391 533.457764,335.409912 513.645874,335.628143 
	C512.075195,335.645447 509.803650,337.358246 509.080383,338.868591 
	C501.901886,353.858307 494.987457,368.974396 487.975891,384.044312 
	C487.401947,385.277893 486.662262,386.434387 485.744598,388.085541 
	C476.611786,371.326630 467.795013,355.302887 459.173950,339.174500 
	C457.743073,336.497559 456.217499,335.347137 453.078186,335.404938 
	C442.083252,335.607513 431.082245,335.470886 420.083679,335.501617 
	C418.893219,335.504974 417.703461,335.759338 416.197113,335.933929 
	C417.354370,338.075104 418.200897,339.694824 419.095062,341.287811 
	C433.584198,367.101440 448.012573,392.949738 462.659088,418.673828 
	C464.459503,421.835968 464.438995,424.137329 462.738953,427.252014 
	C457.244202,437.319397 451.991882,447.522644 446.836487,457.769257 
	C445.541992,460.342102 444.028564,461.330109 441.095886,461.298828 
	C425.766174,461.135284 410.434021,461.202332 395.094971,460.224426 
	C395.094971,384.593994 395.094971,308.963562 395.094971,233.121521 
	C376.284027,233.121521 358.178284,233.121521 339.522186,233.062607 
z"/>
<path fill="#E2E5C7" opacity="1.000000" stroke="none" 
	d="
M395.102692,461.189148 
	C410.434021,461.202332 425.766174,461.135284 441.095886,461.298828 
	C444.028564,461.330109 445.541992,460.342102 446.836487,457.769257 
	C451.991882,447.522644 457.244202,437.319397 462.738953,427.252014 
	C464.438995,424.137329 464.459503,421.835968 462.659088,418.673828 
	C448.012573,392.949738 433.584198,367.101440 419.095062,341.287811 
	C418.200897,339.694824 417.354370,338.075104 416.197113,335.933929 
	C417.703461,335.759338 418.893219,335.504974 420.083679,335.501617 
	C431.082245,335.470886 442.083252,335.607513 453.078186,335.404938 
	C456.217499,335.347137 457.743073,336.497559 459.173950,339.174500 
	C467.795013,355.302887 476.611786,371.326630 485.744598,388.085541 
	C486.662262,386.434387 487.401947,385.277893 487.975891,384.044312 
	C494.987457,368.974396 501.901886,353.858307 509.080383,338.868591 
	C509.803650,337.358246 512.075195,335.645447 513.645874,335.628143 
	C533.457764,335.409912 553.272949,335.482391 573.087280,335.500702 
	C573.891235,335.501434 574.695068,335.700836 575.834595,335.852295 
	C575.834595,340.265442 575.834595,344.526093 575.834595,349.218903 
	C578.458740,346.836365 580.695496,344.813965 582.923096,342.781525 
	C595.093079,331.677704 611.826538,329.373749 626.538452,336.779633 
	C630.240662,338.643280 630.240662,338.643280 628.981262,343.266876 
	C652.324951,328.104309 675.944946,330.487305 700.434998,340.252136 
	C696.387390,348.385223 692.631226,355.932861 688.850403,363.529938 
	C683.744995,361.832214 678.881531,359.681610 673.791992,358.682404 
	C669.292236,357.798981 664.505005,357.808167 659.917847,358.226196 
	C658.121155,358.389893 655.264954,360.630463 655.134583,362.121277 
	C654.945618,364.283112 656.178589,367.604858 657.899414,368.679596 
	C661.346924,370.832733 665.608582,371.632599 669.403198,373.290680 
	C676.221924,376.270142 683.513977,378.627136 689.598511,382.738556 
	C707.017822,394.509277 706.341675,422.236389 688.814087,433.899536 
	C669.159180,446.978271 631.159546,444.182648 613.208191,427.953033 
	C617.849182,420.129333 622.557495,412.192078 627.201172,404.363831 
	C632.845886,407.387207 638.112061,410.933014 643.898621,413.069092 
	C648.236816,414.670563 653.296936,415.124115 657.931335,414.760101 
	C660.110107,414.588928 662.862427,411.650665 663.885254,409.321045 
	C665.232849,406.251984 663.166870,403.496582 660.136658,402.102264 
	C656.216125,400.298370 652.047119,399.003052 648.223816,397.026917 
	C642.343628,393.987701 636.419067,390.918945 630.962463,387.203094 
	C623.203369,381.919159 620.005127,374.083862 620.302979,364.772430 
	C620.332458,363.850372 620.307007,362.926544 619.484070,361.735168 
	C618.181946,364.109863 616.879883,366.484558 616.132263,367.847961 
	C610.130310,366.428986 604.636963,364.501526 599.005005,363.922455 
	C584.902283,362.472412 576.359375,371.835205 575.990723,385.971100 
	C575.578125,401.791779 575.895447,417.631470 575.895203,433.462891 
	C575.895142,435.103210 575.895203,436.743530 575.895203,438.693848 
	C563.898499,438.693848 552.184143,438.693848 540.070923,438.693848 
	C540.070923,412.360962 540.070923,386.139404 540.070923,359.917816 
	C539.768860,359.830475 539.466797,359.743103 539.164734,359.655762 
	C521.651001,393.253723 504.137268,426.851685 486.261078,461.144989 
	C592.179626,461.144989 697.235474,461.144989 802.619263,461.144989 
	C802.619263,464.640289 802.619263,467.720093 802.619263,471.253662 
	C800.528870,471.253662 798.393494,471.253632 796.258057,471.253632 
	C693.103882,471.253662 589.949646,471.280518 486.795654,471.156799 
	C482.616547,471.151794 480.098907,472.053619 478.335602,476.081482 
	C476.080994,481.231537 474.252533,488.035461 470.095276,490.482849 
	C465.721313,493.057861 458.816772,491.409424 453.016571,491.468079 
	C445.393463,491.545135 437.768982,491.487000 429.303650,491.487000 
	C432.827820,484.564545 436.013092,478.307770 439.525421,471.408630 
	C325.971527,471.408630 213.093018,471.408630 99.932022,471.408630 
	C99.932022,467.867126 99.932022,464.798431 99.932022,461.228607 
	C142.058884,461.228607 183.995819,461.228607 226.419830,461.656311 
	C227.026794,463.327271 227.146667,464.570526 227.265991,465.808075 
	C246.141739,465.808075 264.567291,465.808075 283.456421,465.876221 
	C301.080994,465.968689 318.242310,465.943787 335.402527,466.068451 
	C338.097168,466.088043 339.572723,465.477081 339.334137,462.821472 
	C339.433899,466.014099 341.340271,466.052002 343.496765,466.036957 
	C351.773682,465.979309 360.051270,466.014954 368.328583,466.015259 
	C377.072998,466.015594 385.817413,466.015289 394.816589,466.015289 
	C394.930756,464.089508 395.016724,462.639313 395.102692,461.189148 
z"/>
<path fill="#C7481D" opacity="1.000000" stroke="none" 
	d="
M282.992798,465.808075 
	C264.567291,465.808075 246.141739,465.808075 227.265991,465.808075 
	C227.146667,464.570526 227.026794,463.327271 226.879089,461.656158 
	C226.900436,455.737762 226.991653,450.247284 226.992432,444.756775 
	C227.002182,376.343994 226.998810,307.931213 226.998810,239.518433 
	C226.998810,237.552612 226.998810,235.586792 226.998810,233.017242 
	C245.637878,233.017242 263.881897,233.017242 282.603943,233.560883 
	C283.052246,311.339050 283.022522,388.573547 282.992798,465.808075 
z"/>
<path fill="#E8A716" opacity="1.000000" stroke="none" 
	d="
M283.456421,465.876221 
	C283.022522,388.573547 283.052246,311.339050 283.068787,233.648834 
	C301.386169,233.125305 319.716675,233.057465 338.520081,233.516357 
	C338.995697,307.518799 338.996552,380.994476 339.010895,454.470154 
	C339.011292,456.630127 339.153900,458.790100 339.194153,461.342773 
	C339.161835,461.998322 339.165527,462.261200 339.169189,462.524048 
	C339.572723,465.477081 338.097168,466.088043 335.402527,466.068451 
	C318.242310,465.943787 301.080994,465.968689 283.456421,465.876221 
z"/>
<path fill="#568A99" opacity="1.000000" stroke="none" 
	d="
M339.334137,462.821472 
	C339.165527,462.261200 339.161835,461.998322 339.434387,461.011719 
	C339.807098,458.300995 339.986908,456.314087 339.987915,454.327087 
	C340.026398,380.591888 340.048370,306.856720 340.072571,233.121521 
	C358.178284,233.121521 376.284027,233.121521 395.094971,233.121521 
	C395.094971,308.963562 395.094971,384.593994 395.098816,460.706787 
	C395.016724,462.639313 394.930756,464.089508 394.816589,466.015289 
	C385.817413,466.015289 377.072998,466.015594 368.328583,466.015259 
	C360.051270,466.014954 351.773682,465.979309 343.496765,466.036957 
	C341.340271,466.052002 339.433899,466.014099 339.334137,462.821472 
z"/>
<path fill="#3D5555" opacity="1.000000" stroke="none" 
	d="
M339.797363,233.092072 
	C340.048370,306.856720 340.026398,380.591888 339.987915,454.327087 
	C339.986908,456.314087 339.807098,458.300995 339.470428,460.619019 
	C339.153900,458.790100 339.011292,456.630127 339.010895,454.470154 
	C338.996552,380.994476 338.995697,307.518799 338.982605,233.584396 
	C339.155609,233.104660 339.338898,233.083633 339.797363,233.092072 
z"/>
</svg>